<?xml version="1.0" standalone="no"?>
<!DOCTYPE svg PUBLIC "-//W3C//DTD SVG 20010904//EN"
 "http://www.w3.org/TR/2001/REC-SVG-20010904/DTD/svg10.dtd">
<svg version="1.0" xmlns="http://www.w3.org/2000/svg"
 width="200.000000pt" height="200.000000pt" viewBox="0 0 200.000000 200.000000"
 preserveAspectRatio="xMidYMid meet">

<g transform="translate(0.000000,200.000000) scale(0.100000,-0.100000)"
fill="#000000" stroke="none">
<path d="M586 1684 c-14 -13 -16 -55 -16 -309 0 -292 0 -294 22 -309 18 -13
55 -16 191 -16 l168 0 -3 -62 -3 -63 -33 -3 c-18 -2 -30 -8 -27 -13 8 -13 295
-12 295 1 0 6 -13 10 -30 10 l-30 0 0 65 0 65 163 0 c131 0 167 3 185 16 22
15 22 17 22 309 0 254 -2 296 -16 309 -14 14 -68 16 -444 16 -376 0 -430 -2
-444 -16z m882 -303 c2 -229 -1 -296 -10 -303 -22 -13 -842 -10 -856 4 -18 18
-17 584 1 591 6 3 203 5 437 4 l425 -2 3 -294z m-370 -393 l-3 -63 -62 -3 -63
-3 0 66 0 65 65 0 66 0 -3 -62z"/>
<path d="M1083 1530 c-98 -234 -139 -350 -114 -325 17 18 132 317 128 334 -3
12 -6 10 -14 -9z"/>
<path d="M773 1437 c-51 -29 -93 -56 -93 -62 0 -5 42 -32 93 -60 99 -54 117
-61 117 -48 0 4 -33 26 -73 47 -122 66 -120 58 -23 111 47 25 88 51 91 56 13
20 -24 5 -112 -44z"/>
<path d="M1185 1474 c11 -8 53 -33 93 -55 39 -22 72 -41 72 -43 0 -3 -38 -25
-85 -50 -80 -44 -109 -66 -86 -66 11 0 211 109 211 115 0 8 -199 115 -211 115
-9 -1 -7 -6 6 -16z"/>
<path d="M205 700 c-3 -5 3 -10 14 -10 20 0 21 -5 21 -169 l0 -170 -27 -20
c-32 -26 -22 -41 15 -21 36 21 40 42 41 223 1 152 2 157 22 157 11 0 17 5 14
10 -3 6 -26 10 -50 10 -24 0 -47 -4 -50 -10z"/>
<path d="M1116 701 c-4 -7 1 -11 13 -11 20 0 21 -7 23 -145 2 -86 7 -146 13
-148 6 -1 11 23 13 54 l3 57 85 3 c76 4 88 7 105 28 30 36 26 111 -7 142 -23
22 -35 24 -134 27 -70 3 -110 0 -114 -7z m196 -21 c62 -17 78 -81 33 -125 -21
-22 -33 -25 -95 -25 l-70 0 0 73 c0 41 3 77 7 80 10 10 83 8 125 -3z"/>
<path d="M1425 700 c-3 -5 3 -10 14 -10 20 0 21 -7 23 -145 4 -185 21 -198 28
-21 l5 128 58 -81 c32 -44 60 -81 63 -81 2 0 31 37 64 82 l60 82 0 -115 c0
-76 4 -119 12 -127 15 -15 58 -16 58 -2 0 6 -9 10 -20 10 -19 0 -20 7 -20 135
0 128 1 135 20 135 11 0 20 5 20 10 0 6 -13 10 -29 10 -25 0 -38 -12 -96 -91
-37 -50 -71 -87 -75 -83 -5 5 -36 46 -69 92 -47 64 -66 82 -85 82 -14 0 -28
-4 -31 -10z"/>
<path d="M366 564 c-28 -29 -36 -87 -15 -126 32 -60 143 -52 169 13 41 99 -79
187 -154 113z m114 -14 c25 -25 27 -86 3 -112 -25 -28 -77 -24 -103 9 -55 71
37 166 100 103z"/>
<path d="M597 572 c-34 -38 -17 -64 53 -85 66 -19 81 -62 25 -67 -58 -6 -75 0
-75 25 0 14 -5 25 -11 25 -6 0 -9 -14 -7 -32 3 -29 7 -33 42 -40 54 -11 104 6
112 38 9 35 -17 60 -77 74 -43 10 -50 16 -47 34 3 18 10 21 48 21 39 0 45 -3
48 -22 5 -33 22 -28 22 6 0 33 -14 41 -74 41 -29 0 -48 -6 -59 -18z"/>
<path d="M816 564 c-51 -52 -25 -154 43 -169 36 -8 101 18 101 39 0 20 -14 20
-30 1 -13 -16 -67 -20 -86 -7 -16 10 -34 48 -27 56 3 3 40 6 81 6 63 0 73 2
68 16 -3 9 -6 22 -6 30 0 27 -39 54 -79 54 -28 0 -45 -7 -65 -26z m106 -11
c35 -32 23 -43 -48 -43 -68 0 -70 3 -36 43 19 22 60 22 84 0z"/>
</g>
</svg>
